<svg width="24" height="24" viewBox="0 0 24 24" fill="none" xmlns="http://www.w3.org/2000/svg">
<g clip-path="url(#clip0_13_1156)">
<path d="M22.5 5.25V11.25C22.5001 11.3984 22.4562 11.5435 22.3738 11.667C22.2914 11.7904 22.1742 11.8867 22.0371 11.9435C21.9 12.0003 21.7491 12.0151 21.6035 11.9861C21.4579 11.9572 21.3243 11.8856 21.2194 11.7806L18.75 9.31031L13.2806 14.7806C13.211 14.8504 13.1282 14.9057 13.0372 14.9434C12.9461 14.9812 12.8486 15.0006 12.75 15.0006C12.6514 15.0006 12.5538 14.9812 12.4628 14.9434C12.3717 14.9057 12.289 14.8504 12.2194 14.7806L8.99999 11.5603L2.78061 17.7806C2.63988 17.9214 2.44901 18.0004 2.24999 18.0004C2.05097 18.0004 1.8601 17.9214 1.71936 17.7806C1.57863 17.6399 1.49957 17.449 1.49957 17.25C1.49957 17.051 1.57863 16.8601 1.71936 16.7194L8.46936 9.96938C8.53902 9.89964 8.62174 9.84432 8.71278 9.80658C8.80383 9.76884 8.90143 9.74941 8.99999 9.74941C9.09855 9.74941 9.19615 9.76884 9.28719 9.80658C9.37824 9.84432 9.46096 9.89964 9.53061 9.96938L12.75 13.1897L17.6897 8.25L15.2194 5.78063C15.1144 5.67573 15.0428 5.54204 15.0138 5.39648C14.9849 5.25092 14.9997 5.10002 15.0565 4.96291C15.1133 4.82579 15.2096 4.70861 15.333 4.62621C15.4564 4.54381 15.6016 4.49988 15.75 4.5H21.75C21.9489 4.5 22.1397 4.57902 22.2803 4.71967C22.421 4.86032 22.5 5.05109 22.5 5.25Z" fill="white"/>
</g>
<defs>
<clipPath id="clip0_13_1156">
<rect width="24" height="24" fill="white"/>
</clipPath>
</defs>
</svg>
