<svg width="24" height="24" viewBox="0 0 24 24" fill="none" xmlns="http://www.w3.org/2000/svg">
<rect width="24" height="24" rx="6" fill="url(#paint0_linear_46_1445)"/>
<path fill-rule="evenodd" clip-rule="evenodd" d="M11.9404 3.1397H12.0595H12.0595C13.9147 3.13968 15.3878 3.13967 16.5399 3.29315C17.7261 3.45118 18.6939 3.78513 19.4544 4.54559C20.2148 5.30605 20.5488 6.27383 20.7068 7.46005C20.8603 8.61216 20.8603 10.0852 20.8603 11.9404V11.9404V12.0596V12.0596C20.8603 13.9148 20.8603 15.3878 20.7068 16.54C20.5488 17.7262 20.2148 18.694 19.4544 19.4544C18.6939 20.2149 17.7261 20.5488 16.5399 20.7069C15.3878 20.8603 13.9147 20.8603 12.0596 20.8603H12.0595H11.9404H11.9403C10.0852 20.8603 8.61211 20.8603 7.46 20.7069C6.27378 20.5488 5.306 20.2149 4.54554 19.4544C3.78508 18.694 3.45113 17.7262 3.2931 16.54C3.13962 15.3878 3.13963 13.9148 3.13965 12.0596V12.0595V11.9405V11.9404C3.13963 10.0853 3.13962 8.61218 3.2931 7.46005C3.45113 6.27383 3.78508 5.30605 4.54554 4.54559C5.306 3.78513 6.27378 3.45118 7.46 3.29315C8.61212 3.13967 10.0852 3.13968 11.9404 3.1397H11.9404ZM7.67128 4.87914C6.65888 5.01401 6.08802 5.26584 5.67691 5.67696C5.26579 6.08807 5.01396 6.65893 4.87909 7.67133C4.74132 8.70551 4.73965 10.0718 4.73965 12C4.73965 13.9282 4.74132 15.2945 4.87909 16.3287C5.01396 17.3411 5.26579 17.9119 5.67691 18.323C6.08802 18.7342 6.65888 18.986 7.67128 19.1209C8.70546 19.2586 10.0718 19.2603 12 19.2603C13.9281 19.2603 15.2944 19.2586 16.3286 19.1209C17.341 18.986 17.9119 18.7342 18.323 18.323C18.7341 17.9119 18.9859 17.3411 19.1208 16.3287C19.2586 15.2945 19.2603 13.9282 19.2603 12C19.2603 10.0718 19.2586 8.70551 19.1208 7.67133C18.9859 6.65893 18.7341 6.08807 18.323 5.67696C17.9119 5.26584 17.341 5.01401 16.3286 4.87914C15.2944 4.74137 13.9281 4.7397 12 4.7397C10.0718 4.7397 8.70546 4.74137 7.67128 4.87914ZM12 9.04207C10.3663 9.04207 9.04202 10.3664 9.04202 12C9.04202 13.6336 10.3663 14.9579 12 14.9579C13.6336 14.9579 14.9579 13.6336 14.9579 12C14.9579 10.3664 13.6336 9.04207 12 9.04207ZM7.44202 12C7.44202 9.48272 9.48267 7.44207 12 7.44207C14.5172 7.44207 16.5579 9.48272 16.5579 12C16.5579 14.5173 14.5172 16.5579 12 16.5579C9.48267 16.5579 7.44202 14.5173 7.44202 12ZM16.7294 8.33324C17.3248 8.33324 17.8075 7.85054 17.8075 7.2551C17.8075 6.65965 17.3248 6.17695 16.7294 6.17695C16.1339 6.17695 15.6512 6.65965 15.6512 7.2551C15.6512 7.85054 16.1339 8.33324 16.7294 8.33324Z" fill="white"/>
<defs>
<linearGradient id="paint0_linear_46_1445" x1="22.349" y1="1.91425" x2="1.35649" y2="22.1672" gradientUnits="userSpaceOnUse">
<stop stop-color="#C937A9"/>
<stop offset="0.383937" stop-color="#F54F52"/>
<stop offset="0.600642" stop-color="#FF6D42"/>
<stop offset="1" stop-color="#FFDB55"/>
</linearGradient>
</defs>
</svg>
