<svg width="24" height="25" viewBox="0 0 24 25" fill="none" xmlns="http://www.w3.org/2000/svg">
<path d="M6.30783 22.3494C7.9683 23.3574 9.91763 23.9378 11.9999 23.9378C18.0656 23.9378 22.9827 19.0206 22.9827 12.955C22.9827 6.88935 18.0656 1.97218 11.9999 1.97218C5.93427 1.97218 1.01709 6.88935 1.01709 12.955C1.01709 15.1349 1.65317 17.1688 2.7498 18.8782L1.92157 21.8964L1.47088 23.5387L3.12469 23.1321L6.30783 22.3494Z" fill="url(#paint0_linear_46_1446)" stroke="white" stroke-width="2"/>
<path d="M13.8348 15.7194C13.6755 15.8913 13.4663 15.8805 13.3159 15.8374C12.3027 15.6055 10.0348 13.9913 9.13046 12.2643C9.05359 12.1281 9.0394 11.9123 9.19374 11.7359L9.96016 10.741C10.1092 10.5595 10.0898 10.3586 9.9842 10.1454L8.97492 7.68798C8.73284 7.28857 8.25304 7.33678 7.9135 7.38717C7.55074 7.441 7.43535 7.53516 7.2116 7.68798C6.11978 8.43371 5.77064 10.2747 6.23971 11.5187C6.52087 12.2643 7.4058 13.8733 8.93237 15.4459C10.7708 17.3397 13.0996 18.1437 14.2238 18.4384C15.5099 18.7754 17.3068 18.3969 17.8426 17.1882C17.977 16.885 18.0793 16.3837 18.0904 16.1273C18.1051 15.7843 18.0535 15.6755 17.9056 15.5986L15.4208 14.3757C15.163 14.2389 14.9754 14.2836 14.8309 14.4616L13.8348 15.7194Z" fill="white"/>
<defs>
<linearGradient id="paint0_linear_46_1446" x1="11.9999" y1="2.97218" x2="11.9999" y2="22.9378" gradientUnits="userSpaceOnUse">
<stop stop-color="#59D264"/>
<stop offset="1" stop-color="#27B43D"/>
</linearGradient>
</defs>
</svg>
