<svg width="48" height="48" viewBox="0 0 48 48" fill="none" xmlns="http://www.w3.org/2000/svg">
<circle cx="32.6239" cy="34.1815" r="8.41928" fill="#EF4444"/>
<path fill-rule="evenodd" clip-rule="evenodd" d="M4.65855 9.02181C3.76198 9.30606 2.57214 9.68328 2.56268 10.5314C2.55303 11.3975 3.29994 11.5786 4.25978 11.5137C9.62101 11.1895 20.7144 10.5928 22.1983 10.8003C22.3525 10.8219 22.6051 10.9356 22.3525 11.3146C20.8238 14.0624 16.2014 21.478 15.3886 22.3314C11.2207 22.648 2.72256 23.3334 2.07361 23.5415C1.26242 23.8017 0.879789 24.215 0.895095 24.6741C0.9104 25.1333 1.16642 25.4106 2.8695 25.7608C5.55677 26.3134 9.75407 27.5749 9.75407 29.4843C9.75407 30.7009 8.22993 32.383 7.53936 33.1451C7.45576 33.2373 7.38437 33.3161 7.32939 33.379C7.04595 33.7029 6.82063 34.2582 7.32939 34.7782C7.64307 35.0989 8.24405 35.2272 8.89985 34.5156C10.605 32.6652 12.1294 30.3727 13.7297 27.9658C14.5883 26.6746 15.4687 25.3505 16.4107 24.0441L22.9061 23.7181C20.2563 27.6617 14.8604 35.9175 14.3981 37.6826C14.2265 38.3379 14.1177 39.2674 15.1313 39.2227C15.6604 39.1994 15.8097 38.8657 16.1224 38.1668C16.1547 38.0946 16.1887 38.0186 16.225 37.9387C18.2538 33.4755 23.7842 25.1346 25.0315 23.5449C38.3884 21.898 42.0838 21.898 45.3157 23.5449C45.3926 23.7684 45.6801 24.2167 46.2154 24.222C46.6905 24.2268 47.1159 23.7989 47.1052 23.379C47.0923 22.8755 46.8027 22.2638 45.8245 21.898C43.4564 21.0123 42.3541 20.4698 34.5242 21.0123C30.438 21.2955 28.4206 21.4659 26.2864 21.6506L31.9346 13.136C32.044 13.291 32.458 13.5669 32.8751 13.4626C33.5317 13.2985 34.6925 11.2574 35.3784 9.99354C35.4418 9.87674 35.5137 9.7463 35.5911 9.60604C36.0873 8.70624 36.8062 7.40264 36.9192 6.70963C36.9805 6.33361 36.8996 5.93689 36.56 5.63215C36.3605 5.43987 35.7932 5.17035 35.2431 5.75187C33.3644 7.73796 24.7871 20.6645 24.0597 21.8769L17.5481 22.2048C19.5519 19.3534 23.6882 13.2108 24.3931 10.8003C24.5682 10.2017 24.2842 9.21398 22.3525 9.11699C18.6376 9.03914 10.2729 9.03639 6.53339 9.64817C6.54589 9.39178 6.42396 9.15573 6.25199 8.99939C5.9466 8.72177 5.40045 8.77466 5.04052 8.89778C4.92333 8.93787 4.7943 8.97877 4.65855 9.02181ZM11.2509 28.3887C10.8255 26.5417 7.86219 25.203 6.25719 24.8996C7.49482 24.6012 12.0767 24.29 14.2213 24.1862L11.2509 28.3887Z" fill="white"/>
</svg>
