<svg width="120" height="48" viewBox="0 0 120 48" fill="none" xmlns="http://www.w3.org/2000/svg">
<circle cx="42.3116" cy="35.5282" r="9.36986" fill="#EF4444"/>
<path fill-rule="evenodd" clip-rule="evenodd" d="M11.1889 7.13351C10.1911 7.44985 8.86688 7.86966 8.85636 8.81357C8.84562 9.77742 9.67686 9.97896 10.7451 9.90679C16.7116 9.54591 29.0575 8.88189 30.7089 9.11285C30.8805 9.13685 31.1617 9.26341 30.8805 9.68513C29.1792 12.7432 24.0349 20.9961 23.1304 21.9458C18.4919 22.2982 9.03429 23.0609 8.31207 23.2926C7.40929 23.5822 6.98346 24.0421 7.00049 24.5531C7.01752 25.0641 7.30245 25.3727 9.19781 25.7625C12.1885 26.3774 16.8597 27.7813 16.8597 29.9063C16.8597 31.2603 15.1635 33.1323 14.3949 33.9804C14.3019 34.0831 14.2224 34.1708 14.1613 34.2407C13.8458 34.6012 13.595 35.2192 14.1613 35.798C14.5103 36.1548 15.1792 36.2976 15.909 35.5056C17.8067 33.4463 19.5032 30.895 21.2842 28.2164C22.2397 26.7794 23.2195 25.3058 24.2678 23.8519L31.4966 23.489C28.5477 27.878 22.5425 37.0659 22.0281 39.0302C21.837 39.7595 21.716 40.794 22.844 40.7443C23.4329 40.7183 23.599 40.3469 23.9471 39.5691C23.983 39.4888 24.0208 39.4042 24.0613 39.3152C26.319 34.3481 32.4739 25.0655 33.862 23.2963C59.7478 21.0943 106.558 20.719 111.931 22.3793C112.017 22.628 112.337 23.1269 112.932 23.1328C113.461 23.1381 113.935 22.6619 113.923 22.1947C113.908 21.6343 113.618 20.8533 112.497 20.5464C110.34 19.9557 107.648 19.5733 102.83 19.4459C82.6004 18.9114 37.6337 20.9826 35.2586 21.1881L41.5445 11.7122C41.6663 11.8847 42.127 12.1918 42.5912 12.0757C43.3219 11.893 44.6138 9.62146 45.3772 8.21494C45.4477 8.08496 45.5278 7.93979 45.6138 7.7837C46.1661 6.7823 46.9661 5.33153 47.0919 4.56027C47.1601 4.14179 47.0701 3.70028 46.6922 3.36113C46.4701 3.14715 45.8387 2.84719 45.2266 3.49437C43.1358 5.7047 33.59 20.0908 32.7805 21.44L25.5337 21.8049C27.7638 18.6316 32.3671 11.7955 33.1515 9.11285C33.3464 8.44659 33.0304 7.34737 30.8805 7.23943C26.7462 7.1528 17.4371 7.14973 13.2754 7.83058C13.2893 7.54525 13.1536 7.28254 12.9622 7.10856C12.6223 6.79958 12.0145 6.85845 11.614 6.99547C11.4835 7.04008 11.3399 7.08561 11.1889 7.13351ZM18.5256 28.6871C18.0521 26.6315 14.7542 25.1417 12.968 24.804C14.3454 24.4719 19.4446 24.1255 21.8312 24.01L18.5256 28.6871Z" fill="white"/>
<path d="M87.434 34.4307C87.434 39.7121 91.2211 43.9935 96.8892 43.9935C101.435 43.9935 104.684 41.2711 105.792 37.4684H100.723C100.006 39.0905 98.0766 39.7619 96.7189 39.7619C94.5833 39.7619 92.0665 37.9486 92.0665 34.4307C92.0665 31.1495 94.1016 28.9884 96.7189 28.9884C98.1185 28.9884 99.9978 29.5518 100.723 31.4256L105.792 31.4315C104.704 27.6296 101.537 24.868 96.8892 24.868C91.0691 24.868 87.434 29.1494 87.434 34.4307Z" fill="white"/>
<path fill-rule="evenodd" clip-rule="evenodd" d="M56.4701 43.7715L56.4701 25.1345H64.6601C65.8214 25.1345 66.8701 25.3858 67.8061 25.8885C68.7594 26.3912 69.5047 27.0845 70.0421 27.9685C70.5794 28.8352 70.8481 29.8232 70.8481 30.9325C70.8481 32.0765 70.5794 33.1078 70.0421 34.0265C69.5047 34.9278 68.7681 35.6385 67.8321 36.1585C67.5716 36.3032 67.3018 36.4277 67.0226 36.5322L71.1659 43.7715H66.1026L62.3239 36.9385H61.0247V43.7715H56.4701ZM64.2701 33.5585H61.0247V28.8265H63.8801C64.4347 28.8265 64.9027 28.9218 65.2841 29.1125C65.6827 29.3032 65.9861 29.5805 66.1941 29.9445C66.4021 30.2912 66.5061 30.6985 66.5061 31.1665C66.5061 31.6345 66.4107 32.0505 66.2201 32.4145C66.0467 32.7785 65.7867 33.0645 65.4401 33.2725C65.1107 33.4632 64.7207 33.5585 64.2701 33.5585Z" fill="white"/>
<path d="M73.8965 43.7715V25.1345H85.0942V28.7501H78.4271V32.5378H84.5156V35.8725H78.4271V40.049H85.3542V43.7715H73.8965Z" fill="white"/>
</svg>
