<svg width="24" height="24" viewBox="0 0 24 24" fill="none" xmlns="http://www.w3.org/2000/svg">
<g clip-path="url(#clip0_13_1154)">
<path d="M20.1928 8.71313C20.1361 8.57607 20.04 8.45892 19.9166 8.37648C19.7933 8.29405 19.6483 8.25003 19.5 8.25H4.5C4.35157 8.24988 4.20645 8.29381 4.08301 8.37621C3.95956 8.45861 3.86334 8.57579 3.80653 8.71291C3.74971 8.85002 3.73486 9.00092 3.76385 9.14648C3.79284 9.29204 3.86436 9.42573 3.96937 9.53063L11.4694 17.0306C11.539 17.1004 11.6217 17.1557 11.7128 17.1934C11.8038 17.2312 11.9014 17.2506 12 17.2506C12.0986 17.2506 12.1962 17.2312 12.2872 17.1934C12.3782 17.1557 12.461 17.1004 12.5306 17.0306L20.0306 9.53063C20.1355 9.42568 20.2069 9.29199 20.2357 9.14648C20.2646 9.00096 20.2497 8.85015 20.1928 8.71313Z" fill="white"/>
</g>
<defs>
<clipPath id="clip0_13_1154">
<rect width="24" height="24" fill="white"/>
</clipPath>
</defs>
</svg>
